<mxfile host="app.diagrams.net" modified="2023-04-24T06:32:37.207Z" agent="Mozilla/5.0 (Macintosh; Intel Mac OS X 10_15_7) AppleWebKit/537.36 (KHTML, like Gecko) Chrome/112.0.0.0 Safari/537.36" version="21.2.1" etag="hxng01CydftMM1SP5CZ1" type="github">
  <diagram name="第 1 页" id="VnMyR2kOBY56O7oP7yOQ">
    <mxGraphModel>
      <root>
        <mxCell id="0" />
        <mxCell id="1" parent="0" />
      </root>
    </mxGraphModel>
  </diagram>
</mxfile>
